<svg xmlns="http://www.w3.org/2000/svg" width="467" height="467" viewBox="0 0 467 467">
    <path fill="#484848" fill-rule="evenodd" d="M367.33 398.766l3.645-8.476 4.51 8.049 9.189.847-6.261 6.777 2.033 9-8.38-3.86-7.932 4.715 1.082-9.163-6.935-6.086 9.049-1.803zm-57.62 33.267l6.086-6.935 1.803 9.049 8.476 3.645-8.049 4.511-.847 9.188-6.778-6.261-9 2.033 3.86-8.38-4.715-7.931 9.164 1.081zm-65.08 13.833l7.93-4.715-1.08 9.164 6.935 6.085-9.05 1.803-3.645 8.477-4.51-8.05-9.189-.846 6.262-6.778-2.034-9 8.38 3.86zm-66.17-6.954l9-2.034-3.86 8.38 4.715 7.932-9.163-1.082-6.086 6.936-1.803-9.05-8.477-3.644 8.05-4.511.847-9.189 6.777 6.262zm-60.782-27.062l9.188.847-6.26 6.778 2.033 9-8.381-3.86-7.931 4.715 1.081-9.164-6.935-6.086 9.05-1.803 3.644-8.476 4.511 8.049zm-49.444-44.52l8.476 3.645-8.049 4.51-.847 9.189-6.777-6.261-9 2.033 3.86-8.38-4.715-7.932 9.163 1.082 6.086-6.935 1.803 9.049zm-33.267-57.62l6.935 6.086-9.049 1.803-3.645 8.476-4.511-8.049-9.188-.847 6.261-6.778-2.033-9 8.38 3.86 7.931-4.715-1.081 9.164zm-13.833-65.08l4.715 7.93-9.164-1.08-6.085 6.935-1.803-9.05L.32 245.72l8.05-4.51.846-9.189 6.778 6.262 9-2.034-3.86 8.38zm6.954-66.17l2.034 9-8.38-3.86-7.932 4.715 1.082-9.163-6.936-6.086 9.05-1.803 3.644-8.477 4.511 8.05 9.189.847-6.262 6.777zm27.062-60.782l-.847 9.188-6.778-6.26-9 2.033 3.86-8.381-4.715-7.931 9.164 1.081 6.086-6.935 1.803 9.05 8.476 3.644-8.049 4.511zm44.52-49.444l-3.645 8.476-4.51-8.049-9.189-.847 6.261-6.777-2.033-9 8.38 3.86 7.932-4.715-1.082 9.163 6.935 6.086-9.049 1.803zm57.62-33.267l-6.086 6.935-1.803-9.049-8.476-3.645 8.049-4.511.847-9.188 6.778 6.261 9-2.033-3.86 8.38 4.715 7.931-9.164-1.081zm65.08-13.833l-7.93 4.715 1.08-9.164-6.935-6.085 9.05-1.803L221.28.32l4.51 8.05 9.189.846-6.262 6.778 2.034 9-8.38-3.86zm66.17 6.954l-9 2.034 3.86-8.38-4.715-7.932 9.163 1.082 6.086-6.936 1.803 9.05 8.477 3.644-8.05 4.511-.847 9.189-6.777-6.262zm60.782 27.062l-9.188-.847 6.26-6.778-2.033-9 8.381 3.86 7.931-4.715-1.081 9.164 6.935 6.086-9.05 1.803-3.644 8.476-4.511-8.049zm49.444 44.52l-8.476-3.645 8.049-4.51.847-9.189 6.777 6.261 9-2.033-3.86 8.38 4.715 7.932-9.163-1.082-6.086 6.935-1.803-9.049zm33.267 57.62l-6.935-6.086 9.049-1.803 3.645-8.476 4.511 8.049 9.188.847-6.261 6.778 2.033 9-8.38-3.86-7.931 4.715 1.081-9.164zm13.833 65.08l-4.715-7.93 9.164 1.08 6.085-6.935 1.803 9.05 8.477 3.645-8.05 4.51-.846 9.189-6.778-6.262-9 2.034 3.86-8.38zm-6.954 66.17l-2.034-9 8.38 3.86 7.932-4.715-1.082 9.163 6.936 6.086-9.05 1.803-3.644 8.477-4.511-8.05-9.189-.847 6.262-6.777zm-27.062 60.782l.847-9.188 6.778 6.26 9-2.033-3.86 8.381 4.715 7.931-9.164-1.081-6.086 6.935-1.803-9.05-8.476-3.644 8.049-4.511z"/>
</svg>
